HIERARCHY
ROOT Hips
{
	OFFSET 0.000000 0.000000 0.000000
	CHANNELS 6 Xposition Yposition Zposition Xrotation Yrotation Zrotation
	JOINT LeftUpLeg_virtual
	{
		OFFSET 0.000000 0.000000 0.000000
		CHANNELS 3 Xrotation Yrotation Zrotation
		JOINT LeftUpLeg
		{
			OFFSET 13.026900 -6.336304 -1.092800
			CHANNELS 3 Xrotation Yrotation Zrotation
			JOINT LeftLeg
			{
				OFFSET 0.524474 -46.096886 9.782700
				CHANNELS 3 Xrotation Yrotation Zrotation
				JOINT LeftFoot
				{
					OFFSET -0.524474 -53.427422 -12.948200
					CHANNELS 3 Xrotation Yrotation Zrotation
					JOINT LeftToeBase
					{
						OFFSET 0.192200 -14.009700 16.364100
						CHANNELS 3 Xrotation Yrotation Zrotation
						JOINT LeftToe_End
						{
							OFFSET -1.784700 -0.561700 9.474800
							CHANNELS 3 Xrotation Yrotation Zrotation
							End Site
							{
								OFFSET 0 0 0
							}
						}
					}
				}
			}
		}
	}
	JOINT RightUpLeg_virtual
	{
		OFFSET 0.000000 0.000000 0.000000
		CHANNELS 3 Xrotation Yrotation Zrotation
		JOINT RightUpLeg
		{
			OFFSET -12.883000 -6.336304 -1.092800
			CHANNELS 3 Xrotation Yrotation Zrotation
			JOINT RightLeg
			{
				OFFSET -0.524587 -46.096825 9.782800
				CHANNELS 3 Xrotation Yrotation Zrotation
				JOINT RightFoot
				{
					OFFSET 0.524587 -53.427383 -12.948300
					CHANNELS 3 Xrotation Yrotation Zrotation
					JOINT RightToeBase
					{
						OFFSET -0.192200 -14.009700 16.364100
						CHANNELS 3 Xrotation Yrotation Zrotation
						JOINT RightToe_End
						{
							OFFSET 1.784700 -0.561700 9.474800
							CHANNELS 3 Xrotation Yrotation Zrotation
							End Site
							{
								OFFSET 0 0 0
							}
						}
					}
				}
			}
		}
	}
	JOINT Spine_virtual
	{
		OFFSET 0.000000 0.000000 0.000000
		CHANNELS 3 Xrotation Yrotation Zrotation
		JOINT Spine
		{
			OFFSET 0.072000 7.257294 -0.789700
			CHANNELS 3 Xrotation Yrotation Zrotation
			JOINT Spine1
			{
				OFFSET 0.000000 12.508769 -0.658067
				CHANNELS 3 Xrotation Yrotation Zrotation
				JOINT Spine1_split
				{
					OFFSET 0.000000 12.508769 -0.658067
					CHANNELS 3 Xrotation Yrotation Zrotation
					JOINT Spine2
					{
						OFFSET 0.000000 12.508769 -0.658067
						CHANNELS 3 Xrotation Yrotation Zrotation
						JOINT Neck_virtual
						{
							OFFSET 0.000000 0.000000 0.000000
							CHANNELS 3 Xrotation Yrotation Zrotation
							JOINT Neck
							{
								OFFSET 0.000000 14.033295 7.520400
								CHANNELS 3 Xrotation Yrotation Zrotation
								JOINT Head
								{
									OFFSET 0.000000 8.198502 5.703100
									CHANNELS 3 Xrotation Yrotation Zrotation
									JOINT HeadTop_End
									{
										OFFSET 0.000000 17.760803 13.332701
										CHANNELS 3 Xrotation Yrotation Zrotation
										End Site
										{
											OFFSET 0 0 0
										}
									}
								}
							}
						}
						JOINT LeftShoulder_virtual
						{
							OFFSET 0.000000 0.000000 0.000000
							CHANNELS 3 Xrotation Yrotation Zrotation
							JOINT LeftShoulder
							{
								OFFSET 6.292450 5.785301 -0.669000
								CHANNELS 3 Xrotation Yrotation Zrotation
								JOINT LeftShoulder_split
								{
									OFFSET 6.292450 5.785301 -0.669000
									CHANNELS 3 Xrotation Yrotation Zrotation
									JOINT LeftArm
									{
										OFFSET 13.907140 -6.093903 1.965100
										CHANNELS 3 Xrotation Yrotation Zrotation
										JOINT LeftForeArm
										{
											OFFSET 34.140198 0.000000 0.000000
											CHANNELS 3 Xrotation Yrotation Zrotation
											JOINT LeftHand
											{
												OFFSET 40.960209 0.000000 0.000000
												CHANNELS 3 Xrotation Yrotation Zrotation
												End Site
												{
													OFFSET 0 0 0
												}
											}
										}
									}
								}
							}
						}
						JOINT RightShoulder_virtual
						{
							OFFSET 0.000000 0.000000 0.000000
							CHANNELS 3 Xrotation Yrotation Zrotation
							JOINT RightShoulder
							{
								OFFSET -6.292450 5.785301 -0.669000
								CHANNELS 3 Xrotation Yrotation Zrotation
								JOINT RightShoulder_split
								{
									OFFSET -6.292450 5.785301 -0.669000
									CHANNELS 3 Xrotation Yrotation Zrotation
									JOINT RightArm
									{
										OFFSET -13.907140 -6.093903 1.965100
										CHANNELS 3 Xrotation Yrotation Zrotation
										JOINT RightForeArm
										{
											OFFSET -34.140198 0.000000 0.000000
											CHANNELS 3 Xrotation Yrotation Zrotation
											JOINT RightHand
											{
												OFFSET -40.960209 0.000000 0.000000
												CHANNELS 3 Xrotation Yrotation Zrotation
												End Site
												{
													OFFSET 0 0 0
												}
											}
										}
									}
								}
							}
						}
					}
				}
			}
		}
	}
}
MOTION
Frames: 9
Frame Time: 0.03333333
5.467686 84.068741 162.504150 0.000000 0.000000 0.000000 6.260444 12.014813 -0.138252 37.175931 47.795427 0.936476 17.585350 8.663328 -2.940979 -30.856165 21.858731 -20.307327 -15.002067 -5.196749 -6.829334 0.000000 0.000000 0.000000 7.437710 13.164998 -1.093148 -73.625826 10.311046 -1.837174 44.263246 -10.731711 4.278765 12.928108 3.926186 21.216236 8.854159 -1.490831 -21.724721 0.000000 0.000000 0.000000 4.177708 14.953145 0.724793 0.129796 -9.530049 2.425175 2.360592 -6.440461 -1.106679 0.270593 -0.798376 0.072919 0.000000 0.000000 0.000000 4.960981 -4.830459 1.484682 11.492115 32.021576 13.515713 4.338274 6.978433 1.678062 0.000000 0.000000 0.000000 3.749206 -5.700621 0.401474 1.903339 -13.467767 -11.430986 -2.087648 0.032572 -7.214720 -65.984668 -15.574238 -29.180405 -12.369472 -53.468227 8.460564 0.000000 0.000000 0.000000 3.018400 -6.917702 0.548488 -0.413522 1.696023 -12.829867 -9.280959 -7.933358 -5.962949 -47.648650 34.873675 51.510336 6.781173 1.226811 -3.043103 0.000000 0.000000 0.000000 
4.716745 83.876190 166.407349 0.000000 0.000000 0.000000 7.495308 5.474176 -1.433569 39.642831 50.720520 -0.739101 12.797476 9.497284 -3.804750 -25.733556 18.471514 -19.151316 -23.731742 -5.409561 -6.910337 0.000000 0.000000 0.000000 8.733911 5.644911 -2.244195 -73.333672 11.461114 3.192286 48.704563 -14.569529 6.277003 9.689318 0.121632 17.222103 12.011467 -2.449271 -21.666810 0.000000 0.000000 0.000000 5.298842 9.012745 -1.014221 0.376551 -10.369350 4.007747 2.881395 -9.466203 -0.452796 0.084642 -0.849216 0.032681 0.000000 0.000000 0.000000 5.452815 -7.818080 2.510152 5.545625 34.865227 13.588506 9.267581 15.379306 0.991519 0.000000 0.000000 0.000000 3.819321 -8.857849 0.765306 -0.162860 -21.938967 -15.168013 -1.653627 -0.580731 -5.325548 -57.503889 -25.360014 -28.671447 -6.721221 -38.318809 7.054521 0.000000 0.000000 0.000000 3.523592 -9.737316 1.761463 -0.529533 -2.949438 -5.938805 -6.485698 -6.646833 -5.926439 -33.475109 31.364485 40.503432 5.519741 -7.208475 -1.560463 0.000000 0.000000 0.000000 
4.200727 83.897308 170.171753 0.000000 0.000000 0.000000 9.212196 -1.686143 -2.774348 37.004455 52.369502 1.788189 12.297456 9.312031 -5.051475 -16.505475 15.581644 -18.376235 -30.321184 -5.024805 -8.020893 0.000000 0.000000 0.000000 10.001565 -1.541824 -3.279588 -73.835137 12.676875 7.120569 53.925443 -15.765427 7.890700 7.921731 -1.917446 15.091866 14.258679 -3.135149 -20.970375 0.000000 0.000000 0.000000 7.174286 3.680943 -2.676302 0.623040 -10.719412 5.562099 3.317969 -11.837321 0.117178 -0.034073 -0.772096 0.012936 0.000000 0.000000 0.000000 6.020615 -10.122985 3.357237 -1.226947 36.893595 14.322832 12.323242 21.631645 -0.448085 0.000000 0.000000 0.000000 3.754236 -11.264821 1.015766 -2.282841 -29.103388 -17.883518 -0.609875 -1.414985 -3.090762 -48.526616 -32.158392 -26.823440 -0.592925 -26.670277 5.243508 0.000000 0.000000 0.000000 3.758115 -11.867922 2.791930 -0.469170 -6.740019 -0.251263 -4.207743 -5.559672 -5.757417 -23.793405 26.482778 32.005795 3.870163 -7.883258 -1.053257 0.000000 0.000000 0.000000 
3.846702 84.011917 174.109818 0.000000 0.000000 0.000000 10.802001 -9.232202 -4.031059 29.483949 52.077573 8.645922 16.903006 8.509013 -6.764356 -6.419825 14.400527 -16.772289 -31.049104 -4.031706 -10.476648 0.000000 0.000000 0.000000 10.962544 -8.152874 -4.360074 -74.448734 13.864143 9.887728 57.873456 -14.343539 8.349723 7.881843 -1.625189 15.789094 14.627943 -3.353101 -19.742638 0.000000 0.000000 0.000000 9.510580 -1.811652 -4.158429 0.976503 -10.506921 6.898863 3.634181 -13.376556 0.572656 -0.056462 -0.541826 0.088771 0.000000 0.000000 0.000000 6.500096 -11.611312 3.876877 -8.165754 37.858772 15.515113 13.154911 25.837757 -1.944128 0.000000 0.000000 0.000000 3.436174 -12.802097 1.133875 -3.844271 -34.559931 -19.099483 1.168985 -1.927162 -0.982711 -42.742344 -35.480087 -26.259892 6.010499 -19.723397 3.672585 0.000000 0.000000 0.000000 3.627264 -13.131276 3.527318 -0.455477 -9.166547 3.967205 -1.934932 -4.773077 -5.426729 -18.366333 21.494843 25.138685 1.692167 -3.438650 -0.971755 0.000000 0.000000 0.000000 
3.703672 84.145081 178.075958 0.000000 0.000000 0.000000 11.916085 -16.588889 -5.198214 18.652002 49.323207 18.074625 25.619343 7.872912 -8.732693 0.657599 15.071892 -13.831302 -27.321339 -2.903411 -13.843620 0.000000 0.000000 0.000000 11.577950 -14.268993 -5.446196 -73.558562 14.785751 11.499758 58.831390 -12.099041 7.840623 7.725837 -0.216392 17.398688 14.005520 -3.250810 -17.820758 0.000000 0.000000 0.000000 11.694830 -8.008160 -5.327298 1.465769 -9.744414 7.910018 3.796290 -14.100462 0.971541 0.013481 -0.201882 0.233205 0.000000 0.000000 0.000000 6.670788 -12.317348 4.046467 -14.415671 37.944802 16.731455 11.944467 28.220747 -3.068418 0.000000 0.000000 0.000000 2.857235 -13.517702 1.076077 -4.490861 -38.278040 -18.896214 2.798567 -1.643396 0.653669 -42.333639 -36.052785 -28.714955 12.979859 -16.562329 2.899934 0.000000 0.000000 0.000000 3.265125 -13.562963 3.999625 -0.646577 -10.089806 6.719835 0.035536 -4.702706 -4.708151 -16.050538 17.327526 18.950370 -0.777599 3.411282 -0.870433 0.000000 0.000000 0.000000 
3.745067 84.531563 182.467178 0.000000 0.000000 0.000000 12.477809 -22.437457 -6.380503 6.745932 42.984593 27.953970 37.089365 5.989323 -10.222724 4.501812 16.209222 -11.781210 -24.126154 -1.920111 -16.872403 0.000000 0.000000 0.000000 11.990569 -20.007866 -6.409324 -70.202385 15.320026 11.987247 56.384127 -10.274240 6.842162 5.376001 0.978438 18.258566 14.172218 -3.060482 -15.064693 0.000000 0.000000 0.000000 13.078249 -14.667801 -6.083296 2.054653 -8.591952 8.534194 3.753810 -14.121881 1.346079 0.138970 0.187428 0.277724 0.000000 0.000000 0.000000 6.378793 -12.359736 3.899505 -19.038116 37.390580 17.416709 9.180096 29.017604 -3.661842 0.000000 0.000000 0.000000 2.192949 -13.560190 0.876363 -4.110497 -40.360623 -17.470164 4.232497 -0.866532 2.134445 -46.998597 -35.082703 -33.830893 19.451841 -15.177749 2.889042 0.000000 0.000000 0.000000 2.788244 -13.285464 4.290247 -1.003217 -9.906782 8.145863 1.826006 -5.312853 -3.691427 -15.990262 14.400892 13.311096 -3.295224 9.613689 -0.574173 0.000000 0.000000 0.000000 
3.717098 85.396362 187.455582 0.000000 0.000000 0.000000 12.414186 -26.579700 -7.384823 -3.653890 33.577859 35.628572 48.893663 2.796320 -10.409390 5.990173 16.292452 -10.953583 -24.532945 -0.876547 -18.628392 0.000000 0.000000 0.000000 12.103701 -24.694940 -7.135807 -64.678135 15.395253 11.132751 52.432702 -8.897617 5.838130 1.390582 1.627469 18.108151 15.306324 -2.665641 -11.593819 0.000000 0.000000 0.000000 13.505697 -20.833325 -6.440976 2.689382 -7.327020 8.593169 3.504914 -13.664198 1.695443 0.218237 0.439124 0.280683 0.000000 0.000000 0.000000 5.540307 -11.902640 3.579117 -20.930059 36.813555 17.064005 5.824902 28.400896 -4.018779 0.000000 0.000000 0.000000 1.621714 -13.235713 0.601191 -2.779597 -40.868939 -14.936934 4.889209 0.097742 2.934747 -55.113787 -34.177379 -40.072146 24.101227 -13.197515 2.989786 0.000000 0.000000 0.000000 2.273698 -12.517877 4.495074 -1.333333 -9.016400 8.467993 3.520534 -6.131481 -2.831821 -18.557168 12.525975 8.667927 -5.463335 13.571524 -0.181423 0.000000 0.000000 0.000000 
3.375241 86.783623 192.835205 0.000000 0.000000 0.000000 11.829148 -29.434929 -7.894768 -12.781948 23.009260 40.577894 59.660357 -0.477487 -9.230819 6.614858 15.323610 -10.699176 -27.295114 0.016760 -18.921099 0.000000 0.000000 0.000000 11.645667 -28.585457 -7.337232 -58.304735 14.966558 9.021573 48.764190 -7.512736 4.823598 -2.425492 1.720562 18.209144 15.816090 -1.907402 -7.948902 0.000000 0.000000 0.000000 12.834451 -25.792808 -6.345322 3.177577 -6.203947 7.945924 3.080237 -12.976908 2.001958 0.181724 0.578424 0.126854 0.000000 0.000000 0.000000 4.165014 -11.139026 3.233087 -19.440766 36.587548 15.433905 2.684314 26.716871 -4.389157 0.000000 0.000000 0.000000 1.321633 -12.717350 0.323169 -0.667620 -39.891331 -11.359922 4.448039 0.652516 3.603152 -64.368543 -34.713566 -45.522989 26.176485 -11.251879 2.933522 0.000000 0.000000 0.000000 1.792983 -11.474159 4.740970 -1.562902 -7.909519 7.575718 4.965089 -6.689111 -2.769491 -24.674649 12.123763 5.639074 -6.993409 16.017014 0.181884 0.000000 0.000000 0.000000 
2.579554 88.573120 198.633560 0.000000 0.000000 0.000000 11.068049 -31.223520 -7.570288 -20.908556 12.991090 42.433599 67.930691 -2.982694 -6.794676 7.205275 14.818724 -11.161481 -27.292792 0.260706 -18.639202 0.000000 0.000000 0.000000 10.854814 -31.251121 -6.863633 -51.904110 14.233805 6.155355 45.830907 -5.435682 3.493782 -6.081261 1.359414 19.919752 13.720164 -0.874108 -4.879777 0.000000 0.000000 0.000000 11.305690 -29.365948 -5.907669 3.490910 -5.441054 6.589571 2.483575 -12.193073 2.201127 0.087547 0.611160 -0.073186 0.000000 0.000000 0.000000 2.450404 -10.197332 2.917551 -14.582450 36.652991 12.666889 0.323539 24.484717 -4.894440 0.000000 0.000000 0.000000 1.316711 -12.099003 0.151670 1.903269 -37.278817 -6.863031 3.384070 0.616079 3.848018 -73.323501 -38.212101 -49.470288 25.453106 -10.510066 2.707226 0.000000 0.000000 0.000000 1.335744 -10.319467 4.993877 -1.723601 -7.051202 5.226899 5.304534 -6.665252 -2.894838 -35.090606 13.637345 4.762628 -7.739887 18.706493 0.719326 0.000000 0.000000 0.000000 
